<svg preserveAspectRatio="none" overflow="visible" style="display: block;" width="58.0318" height="53.3545" viewBox="0 0 58.0318 53.3545" fill="none" xmlns="http://www.w3.org/2000/svg">
<g id="Group">
<path id="Vector" d="M18.2572 27.5377C23.4852 27.5377 27.7233 23.2996 27.7233 18.0716C27.7233 12.8436 23.4852 8.60551 18.2572 8.60551C13.0292 8.60551 8.7911 12.8436 8.7911 18.0716C8.7911 23.2996 13.0292 27.5377 18.2572 27.5377Z" fill="#B94630"/>
<path id="Vector_2" d="M39.7711 18.9323C44.9991 18.9323 49.2372 14.6942 49.2372 9.46624C49.2372 4.23825 44.9991 0.000127018 39.7711 0.000127018C34.5431 0.000127018 30.305 4.23825 30.305 9.46624C30.305 14.6942 34.5431 18.9323 39.7711 18.9323Z" fill="#B94630"/>
<path id="Vector_3" d="M57.6569 34.7597C54.8653 27.3521 47.6779 22.3746 39.7711 22.3746C34.8935 22.3746 30.2981 24.2782 26.8318 27.4691C33.2137 29.9097 38.4837 34.9353 40.9759 41.5444C41.3614 42.5633 41.5335 43.62 41.6024 44.6768C45.7709 44.5047 49.8947 43.7818 53.8739 42.4531C55.4436 41.9299 56.7447 40.7767 57.4573 39.2897C58.1457 37.844 58.218 36.233 57.6603 34.7597H57.6569Z" fill="#B94630"/>
<path id="Vector_4" d="M36.143 43.3651C33.3514 35.9575 26.164 30.98 18.2572 30.98C10.3504 30.98 3.16308 35.9575 0.371439 43.3651C-0.186201 44.8418 -0.113914 46.4494 0.57453 47.8951C1.28363 49.3821 2.58823 50.5353 4.15788 51.0585C8.71883 52.58 13.4657 53.3545 18.2572 53.3545C23.0488 53.3545 27.7956 52.58 32.3566 51.0585C33.9262 50.5353 35.2274 49.3821 35.9399 47.8951C36.6284 46.4494 36.7007 44.8384 36.143 43.3651Z" fill="#B94630"/>
</g>
</svg>
